<?xml version="1.0" standalone="no"?>
<!DOCTYPE svg PUBLIC "-//W3C//DTD SVG 20010904//EN"
 "http://www.w3.org/TR/2001/REC-SVG-20010904/DTD/svg10.dtd">
<svg version="1.0" xmlns="http://www.w3.org/2000/svg"
 width="1200.000000pt" height="1200.000000pt" viewBox="0 0 1200.000000 1200.000000"
 preserveAspectRatio="xMidYMid meet">
<metadata>
Created by potrace 1.15, written by Peter Selinger 2001-2017
</metadata>
<g transform="translate(0.000000,1200.000000) scale(0.100000,-0.100000)"
fill="#000000" stroke="none">
<path d="M0 6000 l0 -6000 6000 0 6000 0 0 6000 0 6000 -6000 0 -6000 0 0
-6000z m6559 2953 c295 -185 1416 -890 2491 -1566 1075 -676 2010 -1264 2077
-1306 68 -42 123 -78 123 -81 0 -3 -717 -455 -1592 -1005 -875 -550 -2055
-1291 -2622 -1648 -585 -367 -1036 -645 -1044 -642 -15 5 -540 335 -2432 1525
-597 375 -1473 926 -1947 1224 -475 297 -863 543 -863 546 0 3 449 287 998
631 548 345 1461 918 2027 1274 2061 1297 2219 1395 2234 1390 8 -3 256 -157
550 -342z"/>
<path d="M5630 8888 c-360 -227 -2357 -1484 -3828 -2407 -413 -260 -752 -477
-752 -481 0 -4 138 -94 308 -201 169 -106 1081 -679 2027 -1274 946 -595 1921
-1208 2167 -1363 l448 -281 797 501 c439 276 1257 790 1818 1143 561 352 1316
827 1678 1054 361 228 657 417 657 421 0 4 -120 83 -267 176 -148 92 -884 556
-1638 1029 -2067 1300 -3046 1915 -3048 1914 -1 0 -166 -104 -367 -231z
m-2292 -2652 c15 -8 41 -28 57 -46 l30 -31 3 -220 3 -219 -26 -10 c-15 -6 -28
-10 -31 -10 -2 0 -4 91 -4 203 0 226 -4 242 -62 270 -43 21 -77 15 -113 -20
l-25 -26 0 -197 c0 -208 0 -210 -47 -224 l-23 -7 0 206 c0 214 6 251 48 299
39 43 136 60 190 32z m4472 -61 l0 -75 90 0 c93 0 100 -4 80 -41 -9 -16 -22
-19 -90 -19 l-80 0 0 -105 c0 -114 9 -147 47 -164 41 -19 103 12 103 50 0 10
13 25 30 34 38 20 40 19 40 -10 0 -40 -24 -89 -59 -118 -61 -51 -169 -29 -206
42 -11 22 -15 61 -15 151 0 113 -1 120 -20 120 -11 0 -20 7 -20 15 0 8 9 24
20 35 15 15 20 33 20 78 0 51 3 60 23 70 36 17 37 15 37 -63z m-1873 35 c-11
-28 -15 -30 -64 -30 l-53 0 0 -205 0 -205 64 0 64 0 -11 -30 -11 -30 -148 0
c-81 0 -148 2 -148 5 0 2 5 16 12 30 10 22 17 25 63 25 l52 0 0 205 0 205 -63
0 c-35 0 -64 2 -64 5 0 2 5 16 12 30 l11 25 148 0 147 0 -11 -30z m-3909 -80
c130 -79 74 -280 -78 -280 -85 0 -150 65 -150 150 0 85 65 150 150 150 27 0
58 -8 78 -20z m8100 0 c45 -28 72 -76 72 -130 0 -54 -27 -102 -72 -130 -69
-42 -166 -17 -208 52 -42 69 -17 166 52 208 20 12 51 20 78 20 27 0 58 -8 78
-20z m-6357 -57 c50 -42 59 -76 59 -221 0 -128 0 -129 -25 -140 -14 -7 -30
-12 -35 -12 -6 0 -10 41 -10 95 0 52 -4 95 -9 95 -22 0 -130 -53 -135 -66 -14
-35 32 -70 78 -58 17 4 25 -1 35 -22 15 -34 3 -44 -52 -44 -74 0 -127 46 -127
111 0 54 28 81 124 120 89 35 103 51 69 81 -46 40 -105 27 -125 -28 -8 -22
-22 -37 -41 -44 l-30 -10 5 44 c9 78 62 125 140 126 36 0 54 -6 79 -27z m259
-108 c0 -147 8 -178 49 -195 40 -16 79 2 97 45 13 32 55 57 71 42 15 -16 -11
-84 -47 -119 -33 -34 -43 -38 -86 -38 -58 0 -106 26 -129 69 -11 23 -15 63
-15 169 0 134 1 139 23 150 12 6 25 11 30 11 4 1 7 -60 7 -134z m434 -15 c33
-83 63 -147 67 -143 4 5 33 72 64 151 31 78 62 142 69 142 7 0 20 -6 30 -13
16 -12 13 -25 -56 -190 -65 -158 -76 -178 -102 -187 -16 -5 -32 -10 -36 -10
-3 0 -40 84 -80 186 -72 179 -74 187 -55 200 10 8 24 14 29 14 6 0 38 -68 70
-150z m572 119 c30 -27 54 -77 54 -112 0 -21 -14 -30 -110 -72 -60 -27 -110
-50 -110 -51 0 -18 28 -54 47 -63 41 -19 103 12 103 50 0 15 45 49 65 49 10 0
5 -51 -9 -83 -32 -75 -123 -110 -195 -73 -56 30 -71 67 -71 184 0 117 12 151
63 183 45 28 127 22 163 -12z m1255 4 c50 -42 59 -76 59 -221 0 -128 0 -129
-25 -140 -14 -7 -30 -12 -35 -12 -6 0 -10 58 -10 141 0 80 -5 149 -11 160 -25
48 -105 44 -128 -7 -6 -14 -11 -78 -11 -148 0 -122 0 -123 -25 -134 -14 -7
-28 -12 -30 -12 -3 0 -5 68 -5 150 0 117 4 158 15 181 37 71 145 93 206 42z
m273 -123 c33 -83 63 -147 67 -143 4 5 33 72 64 151 31 78 62 142 69 142 7 0
20 -6 30 -13 16 -12 13 -25 -56 -190 -65 -158 -76 -178 -102 -187 -16 -5 -32
-10 -36 -10 -3 0 -40 84 -80 186 -72 179 -74 187 -55 200 10 8 24 14 29 14 6
0 38 -68 70 -150z m572 119 c30 -27 54 -77 54 -112 0 -21 -14 -30 -110 -72
-60 -27 -110 -50 -110 -51 0 -18 28 -54 47 -63 41 -19 103 12 103 50 0 15 45
49 65 49 10 0 5 -51 -9 -83 -32 -75 -123 -110 -195 -73 -56 30 -71 67 -71 184
0 117 12 151 63 183 45 28 127 22 163 -12z m392 15 c12 -8 29 -28 37 -45 15
-28 15 -30 -10 -41 -22 -10 -28 -8 -49 15 -30 32 -40 33 -66 7 -16 -16 -18
-25 -10 -40 10 -19 20 -23 78 -35 81 -16 119 -110 75 -186 -38 -64 -137 -80
-194 -32 -29 25 -59 77 -59 102 0 6 13 17 29 25 26 14 30 14 35 0 3 -9 6 -24
6 -33 0 -26 36 -54 70 -54 56 0 88 54 57 96 -6 10 -37 24 -66 32 -67 17 -91
40 -98 93 -5 37 -2 45 30 77 28 28 43 35 74 35 21 0 49 -7 61 -16z m863 -11
c45 -38 59 -80 59 -173 0 -93 -14 -135 -59 -173 -61 -51 -169 -29 -206 42 -10
21 -15 59 -15 131 0 72 5 110 15 131 37 71 145 93 206 42z m420 0 c28 -24 59
-77 59 -101 0 -9 -43 -32 -60 -32 -6 0 -10 9 -10 21 0 78 -107 103 -139 33 -6
-14 -11 -78 -11 -148 0 -122 0 -123 -25 -134 -14 -7 -28 -12 -30 -12 -3 0 -5
68 -5 150 0 117 4 158 15 181 37 71 145 93 206 42z m-3251 -1218 c65 -34 97
-126 67 -197 l-16 -37 112 -106 112 -107 43 24 c34 18 58 23 117 23 l75 0 25
63 26 64 -30 34 c-103 116 8 295 158 254 108 -29 151 -155 86 -248 -22 -30
-87 -62 -127 -62 -31 0 -35 -4 -56 -58 -12 -32 -22 -60 -22 -63 0 -3 24 -30
53 -60 53 -55 77 -106 77 -167 0 -33 7 -37 72 -47 40 -6 45 -4 58 19 27 52
104 82 166 65 50 -14 102 -64 114 -109 37 -138 -106 -248 -231 -178 -38 21
-79 84 -79 120 0 10 -13 18 -37 22 -21 4 -46 9 -55 12 -12 3 -22 -5 -33 -29
-9 -19 -33 -52 -55 -73 l-38 -38 36 -72 c35 -71 35 -72 71 -67 55 7 121 -31
149 -87 12 -24 22 -56 22 -70 0 -14 -10 -46 -22 -70 -30 -58 -97 -95 -156 -85
-56 9 -98 39 -122 84 -32 63 -24 129 23 179 l21 22 -34 69 -33 70 -67 -6 c-75
-6 -128 6 -177 43 -17 13 -35 24 -39 24 -4 0 -49 -34 -100 -75 -88 -71 -93
-77 -84 -101 25 -64 -7 -147 -69 -182 -75 -42 -161 -22 -214 50 -28 38 -29
128 -1 165 52 69 134 92 207 57 l35 -17 95 77 95 77 -16 32 c-26 50 -23 170 6
229 l23 47 -108 108 c-108 108 -109 109 -139 96 -44 -18 -85 -16 -134 10 -55
28 -84 74 -84 137 0 62 28 108 84 137 49 27 96 26 150 -2z"/>
<path d="M8274 6029 c-32 -16 -44 -52 -44 -134 0 -63 3 -78 23 -101 28 -33 76
-37 107 -9 17 16 20 31 20 115 0 80 -3 100 -17 113 -24 21 -64 28 -89 16z"/>
</g>
</svg>
