<?xml version="1.0" encoding="UTF-8"?>
<svg xmlns="http://www.w3.org/2000/svg" xmlns:xlink="http://www.w3.org/1999/xlink" width="48pt" height="48pt" viewBox="0 0 48 48" version="1.1">
<g id="surface1">
<path style=" stroke:none;fill-rule:evenodd;fill:rgb(17.254902%,45.490196%,61.176471%);fill-opacity:1;" d="M 0 24 L 0 48 L 48 48 L 48 0 L 0 0 L 0 24 M 26.238281 12.1875 C 27.414062 12.929688 31.898438 15.746094 36.199219 18.453125 C 40.5 21.15625 44.238281 23.507812 44.507812 23.675781 C 44.777344 23.84375 45 23.988281 45 24 C 45 24.011719 42.132812 25.820312 38.632812 28.019531 C 35.132812 30.21875 30.414062 33.1875 28.144531 34.609375 C 25.804688 36.082031 24 37.191406 23.964844 37.179688 C 23.910156 37.15625 21.808594 35.839844 14.238281 31.082031 C 11.851562 29.578125 8.347656 27.375 6.449219 26.183594 C 4.554688 24.996094 3 24.011719 3 24 C 3 23.988281 4.796875 22.851562 6.992188 21.476562 C 9.183594 20.097656 12.835938 17.804688 15.101562 16.378906 C 23.34375 11.191406 23.976562 10.796875 24.035156 10.820312 C 24.070312 10.832031 25.058594 11.449219 26.238281 12.1875 M 22.519531 12.449219 C 21.082031 13.359375 13.089844 18.382812 7.210938 22.078125 C 5.554688 23.117188 4.199219 23.984375 4.199219 24 C 4.199219 24.015625 4.753906 24.378906 5.429688 24.800781 C 6.105469 25.226562 9.757812 27.523438 13.539062 29.902344 C 17.324219 32.28125 21.226562 34.734375 22.210938 35.351562 L 24 36.476562 L 27.191406 34.472656 C 28.945312 33.371094 32.214844 31.3125 34.460938 29.902344 C 36.703125 28.492188 39.722656 26.589844 41.171875 25.683594 C 42.617188 24.773438 43.800781 24.015625 43.800781 24 C 43.800781 23.984375 43.320312 23.667969 42.730469 23.296875 C 42.140625 22.925781 39.195312 21.074219 36.179688 19.179688 C 27.910156 13.976562 23.996094 11.519531 23.988281 11.523438 C 23.984375 11.527344 23.324219 11.941406 22.519531 12.449219 M 13.351562 23.054688 C 13.410156 23.085938 13.515625 23.167969 13.578125 23.238281 L 13.699219 23.363281 L 13.722656 25.121094 L 13.621094 25.160156 C 13.5625 25.183594 13.507812 25.199219 13.496094 25.199219 C 13.488281 25.199219 13.480469 24.835938 13.480469 24.390625 C 13.480469 23.484375 13.464844 23.421875 13.234375 23.308594 C 13.058594 23.222656 12.925781 23.246094 12.78125 23.390625 L 12.679688 23.492188 L 12.679688 24.28125 C 12.679688 25.113281 12.679688 25.121094 12.488281 25.179688 L 12.398438 25.207031 L 12.398438 24.382812 C 12.398438 23.523438 12.425781 23.375 12.589844 23.1875 C 12.75 23.011719 13.136719 22.945312 13.351562 23.054688 M 16.167969 23.101562 C 16.238281 23.253906 16.15625 23.398438 16 23.398438 C 15.910156 23.398438 15.867188 23.375 15.832031 23.300781 C 15.761719 23.144531 15.84375 23 16 23 C 16.089844 23 16.132812 23.023438 16.167969 23.101562 M 31.238281 23.300781 L 31.238281 23.601562 L 31.601562 23.601562 C 31.96875 23.601562 32 23.613281 31.917969 23.761719 C 31.882812 23.828125 31.832031 23.839844 31.558594 23.839844 L 31.238281 23.839844 L 31.238281 24.257812 C 31.238281 24.714844 31.277344 24.847656 31.429688 24.917969 C 31.59375 24.992188 31.839844 24.871094 31.839844 24.714844 C 31.839844 24.65625 32.019531 24.519531 32.097656 24.519531 C 32.140625 24.519531 32.121094 24.722656 32.066406 24.851562 C 31.929688 25.171875 31.546875 25.300781 31.253906 25.121094 C 31.039062 24.992188 31 24.863281 31 24.320312 C 31 23.867188 30.996094 23.839844 30.921875 23.839844 C 30.875 23.839844 30.839844 23.8125 30.839844 23.78125 C 30.839844 23.746094 30.875 23.683594 30.921875 23.640625 C 30.980469 23.578125 31 23.507812 31 23.324219 C 31 23.121094 31.011719 23.085938 31.089844 23.046875 C 31.234375 22.980469 31.238281 22.984375 31.238281 23.300781 M 23.746094 23.160156 C 23.707031 23.273438 23.6875 23.28125 23.492188 23.28125 L 23.28125 23.28125 L 23.28125 24.921875 L 23.792969 24.921875 L 23.746094 25.039062 L 23.703125 25.160156 L 23.109375 25.160156 C 22.785156 25.160156 22.519531 25.152344 22.519531 25.140625 C 22.519531 24.996094 22.625 24.921875 22.820312 24.921875 L 23.027344 24.921875 L 23.027344 23.28125 L 22.773438 23.28125 C 22.632812 23.28125 22.519531 23.273438 22.519531 23.261719 C 22.519531 23.25 22.539062 23.199219 22.566406 23.140625 L 22.613281 23.039062 L 23.792969 23.039062 L 23.746094 23.160156 M 8.109375 23.480469 C 8.628906 23.796875 8.410156 24.601562 7.800781 24.601562 C 7.457031 24.601562 7.199219 24.339844 7.199219 24 C 7.199219 23.660156 7.457031 23.398438 7.800781 23.398438 C 7.910156 23.398438 8.03125 23.429688 8.109375 23.480469 M 40.511719 23.480469 C 40.691406 23.589844 40.800781 23.785156 40.800781 24 C 40.800781 24.214844 40.691406 24.410156 40.511719 24.519531 C 40.238281 24.6875 39.847656 24.589844 39.679688 24.308594 C 39.511719 24.039062 39.613281 23.648438 39.890625 23.480469 C 39.96875 23.429688 40.089844 23.398438 40.199219 23.398438 C 40.308594 23.398438 40.429688 23.429688 40.511719 23.480469 M 15.082031 23.707031 C 15.441406 24.007812 15.4375 25.199219 15.078125 25.199219 C 15.054688 25.199219 15.039062 25.035156 15.039062 24.820312 C 15.039062 24.394531 15.050781 24.402344 14.726562 24.542969 C 14.351562 24.707031 14.394531 25.035156 14.773438 24.9375 C 14.886719 24.910156 15.003906 25.105469 14.910156 25.164062 C 14.753906 25.265625 14.382812 25.164062 14.261719 24.992188 C 14.070312 24.71875 14.226562 24.464844 14.695312 24.277344 C 15.054688 24.132812 15.105469 24.070312 14.96875 23.949219 C 14.789062 23.789062 14.550781 23.84375 14.472656 24.066406 C 14.441406 24.152344 14.386719 24.210938 14.308594 24.238281 L 14.191406 24.28125 L 14.210938 24.105469 C 14.257812 23.664062 14.757812 23.4375 15.082031 23.707031 M 16.121094 24.136719 C 16.121094 24.726562 16.152344 24.851562 16.316406 24.917969 C 16.476562 24.984375 16.628906 24.914062 16.703125 24.742188 C 16.808594 24.488281 17.027344 24.492188 16.980469 24.746094 C 16.886719 25.246094 16.171875 25.367188 15.941406 24.921875 C 15.765625 24.578125 15.871094 23.621094 16.089844 23.601562 C 16.105469 23.601562 16.121094 23.84375 16.121094 24.136719 M 17.855469 24.199219 C 17.988281 24.53125 18.105469 24.789062 18.125 24.769531 C 18.140625 24.753906 18.253906 24.484375 18.382812 24.171875 C 18.609375 23.601562 18.644531 23.554688 18.777344 23.652344 C 18.957031 23.785156 18.246094 25.199219 18 25.199219 C 17.90625 25.199219 17.386719 23.710938 17.460938 23.65625 C 17.59375 23.558594 17.617188 23.589844 17.855469 24.199219 M 20.144531 23.722656 C 20.265625 23.832031 20.359375 24.03125 20.359375 24.171875 C 20.359375 24.257812 20.304688 24.292969 19.921875 24.460938 C 19.679688 24.566406 19.480469 24.660156 19.480469 24.664062 C 19.480469 24.734375 19.589844 24.882812 19.667969 24.917969 C 19.832031 24.992188 20.078125 24.871094 20.078125 24.714844 C 20.078125 24.65625 20.257812 24.519531 20.339844 24.519531 C 20.378906 24.519531 20.359375 24.722656 20.304688 24.851562 C 20.128906 25.269531 19.546875 25.324219 19.320312 24.949219 C 19.214844 24.78125 19.203125 24.0625 19.300781 23.875 C 19.449219 23.589844 19.910156 23.507812 20.144531 23.722656 M 25.164062 23.707031 C 25.519531 24.007812 25.515625 25.199219 25.15625 25.199219 C 25.136719 25.199219 25.121094 24.96875 25.121094 24.636719 C 25.121094 24.035156 25.097656 23.9375 24.929688 23.875 C 24.632812 23.761719 24.519531 23.960938 24.519531 24.617188 C 24.519531 25.117188 24.488281 25.199219 24.296875 25.199219 C 24.242188 25.199219 24.285156 23.988281 24.34375 23.875 C 24.488281 23.59375 24.921875 23.503906 25.164062 23.707031 M 26.257812 24.199219 C 26.386719 24.53125 26.507812 24.789062 26.523438 24.769531 C 26.539062 24.753906 26.65625 24.484375 26.78125 24.171875 C 27.007812 23.601562 27.042969 23.554688 27.175781 23.652344 C 27.355469 23.785156 26.648438 25.199219 26.402344 25.199219 C 26.308594 25.199219 25.785156 23.710938 25.859375 23.65625 C 25.992188 23.558594 26.015625 23.589844 26.257812 24.199219 M 28.546875 23.722656 C 28.664062 23.832031 28.761719 24.03125 28.761719 24.171875 C 28.761719 24.257812 28.703125 24.292969 28.320312 24.460938 C 28.078125 24.566406 27.878906 24.660156 27.878906 24.664062 C 27.878906 24.734375 27.992188 24.882812 28.070312 24.917969 C 28.234375 24.992188 28.480469 24.871094 28.480469 24.714844 C 28.480469 24.65625 28.660156 24.519531 28.738281 24.519531 C 28.78125 24.519531 28.761719 24.722656 28.707031 24.851562 C 28.527344 25.269531 27.949219 25.324219 27.71875 24.949219 C 27.617188 24.78125 27.605469 24.0625 27.703125 23.875 C 27.847656 23.589844 28.3125 23.507812 28.546875 23.722656 M 30.113281 23.664062 C 30.285156 23.785156 30.339844 23.953125 30.222656 24.007812 C 30.132812 24.046875 30.109375 24.039062 30.023438 23.945312 C 29.875 23.785156 29.621094 23.894531 29.71875 24.078125 C 29.761719 24.15625 29.800781 24.175781 30.03125 24.21875 C 30.355469 24.285156 30.507812 24.660156 30.332031 24.964844 C 30.117188 25.328125 29.546875 25.261719 29.375 24.851562 C 29.300781 24.671875 29.304688 24.648438 29.4375 24.582031 C 29.5625 24.515625 29.601562 24.550781 29.601562 24.71875 C 29.601562 24.820312 29.746094 24.933594 29.878906 24.933594 C 30.277344 24.933594 30.246094 24.527344 29.84375 24.421875 C 29.574219 24.351562 29.480469 24.257812 29.453125 24.046875 C 29.410156 23.722656 29.839844 23.472656 30.113281 23.664062 M 33.5625 23.707031 C 34.046875 24.117188 33.820312 25.199219 33.246094 25.199219 C 32.828125 25.199219 32.679688 24.992188 32.679688 24.398438 C 32.679688 23.691406 33.128906 23.34375 33.5625 23.707031 M 35.242188 23.707031 C 35.355469 23.804688 35.480469 24.015625 35.480469 24.113281 C 35.480469 24.148438 35.304688 24.238281 35.238281 24.238281 C 35.21875 24.238281 35.199219 24.203125 35.199219 24.15625 C 35.199219 23.84375 34.773438 23.742188 34.644531 24.023438 C 34.621094 24.082031 34.601562 24.335938 34.601562 24.617188 C 34.601562 25.117188 34.570312 25.199219 34.378906 25.199219 C 34.324219 25.199219 34.363281 23.988281 34.421875 23.875 C 34.566406 23.59375 35 23.503906 35.242188 23.707031 M 19.65625 23.886719 C 19.507812 23.957031 19.390625 24.40625 19.53125 24.347656 C 19.859375 24.214844 20.078125 24.101562 20.078125 24.0625 C 20.078125 23.925781 19.804688 23.8125 19.65625 23.886719 M 28.054688 23.886719 C 27.910156 23.957031 27.789062 24.40625 27.929688 24.347656 C 28.257812 24.214844 28.480469 24.101562 28.480469 24.0625 C 28.480469 23.925781 28.203125 23.8125 28.054688 23.886719 M 33.09375 23.886719 C 32.765625 24.046875 32.882812 24.933594 33.234375 24.933594 C 33.46875 24.933594 33.519531 24.839844 33.519531 24.398438 C 33.519531 23.925781 33.371094 23.75 33.09375 23.886719 M 22.242188 28.582031 C 22.5 28.714844 22.625 29.085938 22.507812 29.371094 L 22.445312 29.515625 L 22.894531 29.941406 L 23.339844 30.367188 L 23.511719 30.273438 C 23.648438 30.199219 23.742188 30.179688 23.980469 30.179688 L 24.28125 30.179688 L 24.382812 29.925781 L 24.480469 29.671875 L 24.363281 29.539062 C 23.953125 29.070312 24.398438 28.359375 24.996094 28.519531 C 25.695312 28.707031 25.554688 29.761719 24.832031 29.761719 C 24.707031 29.761719 24.695312 29.773438 24.609375 29.992188 C 24.496094 30.28125 24.484375 30.226562 24.730469 30.480469 C 24.945312 30.703125 25.039062 30.910156 25.039062 31.148438 C 25.039062 31.285156 25.066406 31.300781 25.328125 31.339844 C 25.488281 31.363281 25.507812 31.359375 25.558594 31.261719 C 25.875 30.671875 26.832031 31.097656 26.683594 31.761719 C 26.535156 32.425781 25.441406 32.347656 25.441406 31.671875 C 25.441406 31.628906 25.386719 31.601562 25.289062 31.582031 C 25.207031 31.566406 25.109375 31.546875 25.074219 31.535156 C 25.027344 31.523438 24.984375 31.558594 24.941406 31.652344 C 24.90625 31.730469 24.804688 31.859375 24.722656 31.941406 L 24.570312 32.09375 L 24.710938 32.382812 C 24.851562 32.667969 24.855469 32.671875 24.996094 32.652344 C 25.660156 32.570312 25.914062 33.535156 25.3125 33.832031 C 24.695312 34.140625 24.101562 33.351562 24.570312 32.847656 L 24.65625 32.757812 L 24.519531 32.480469 L 24.386719 32.207031 L 24.121094 32.226562 C 23.820312 32.253906 23.609375 32.203125 23.414062 32.054688 C 23.246094 31.929688 23.28125 31.917969 22.855469 32.261719 C 22.503906 32.542969 22.484375 32.566406 22.519531 32.664062 C 22.71875 33.183594 22.0625 33.703125 21.601562 33.390625 C 20.933594 32.9375 21.488281 31.960938 22.214844 32.304688 L 22.351562 32.371094 L 22.730469 32.0625 L 23.113281 31.757812 L 23.046875 31.628906 C 22.941406 31.425781 22.957031 30.949219 23.074219 30.710938 L 23.164062 30.523438 L 22.730469 30.089844 C 22.300781 29.660156 22.292969 29.65625 22.175781 29.707031 C 21.769531 29.878906 21.304688 29.566406 21.304688 29.121094 C 21.304688 28.632812 21.796875 28.351562 22.242188 28.582031 "/>
<path style=" stroke:none;fill-rule:evenodd;fill:rgb(94.901961%,95.294118%,42.352941%);fill-opacity:1;" d="M 23.78125 10.941406 C 23.671875 11.015625 21.769531 12.210938 19.558594 13.597656 C 7.546875 21.144531 3.039062 23.980469 3.039062 24 C 3.039062 24.011719 4.070312 24.667969 5.332031 25.457031 C 6.589844 26.25 10.09375 28.453125 13.121094 30.355469 C 16.144531 32.257812 19.832031 34.574219 21.308594 35.503906 L 24 37.191406 L 26.171875 35.828125 C 27.363281 35.082031 30.734375 32.960938 33.660156 31.121094 C 36.585938 29.28125 40.324219 26.929688 41.96875 25.898438 C 43.613281 24.863281 44.960938 24.011719 44.960938 24 C 44.960938 23.988281 43.695312 23.1875 42.148438 22.214844 C 40.605469 21.246094 37.558594 19.328125 35.378906 17.960938 C 28.859375 13.855469 24.128906 10.886719 24.050781 10.847656 C 23.996094 10.820312 23.933594 10.839844 23.78125 10.941406 M 26.558594 13.109375 C 27.914062 13.960938 32.285156 16.710938 36.28125 19.21875 C 40.273438 21.730469 43.609375 23.824219 43.691406 23.875 C 43.902344 24.003906 43.996094 23.933594 42.148438 25.089844 C 41.21875 25.671875 38.363281 27.46875 35.800781 29.082031 C 29.304688 33.167969 24.285156 36.320312 24.132812 36.410156 C 23.972656 36.503906 24.730469 36.957031 18.382812 32.96875 C 15.390625 31.085938 10.96875 28.308594 8.558594 26.792969 C 6.152344 25.277344 4.175781 24.023438 4.167969 24.007812 C 4.164062 23.988281 5.484375 23.140625 7.109375 22.117188 C 8.730469 21.097656 12.597656 18.667969 15.699219 16.71875 C 24.222656 11.359375 23.972656 11.515625 24.039062 11.542969 C 24.070312 11.554688 25.207031 12.261719 26.558594 13.109375 M 12.863281 23.042969 C 12.726562 23.082031 12.574219 23.21875 12.496094 23.367188 C 12.40625 23.539062 12.414062 25.179688 12.503906 25.144531 C 12.539062 25.132812 12.582031 25.121094 12.601562 25.121094 C 12.625 25.121094 12.640625 24.777344 12.640625 24.316406 L 12.640625 23.511719 L 12.777344 23.375 C 13.019531 23.132812 13.46875 23.261719 13.484375 23.574219 C 13.488281 23.632812 13.492188 24.007812 13.496094 24.410156 C 13.5 24.96875 13.511719 25.140625 13.550781 25.136719 C 13.726562 25.121094 13.71875 25.160156 13.71875 24.328125 C 13.71875 23.585938 13.714844 23.527344 13.628906 23.359375 C 13.488281 23.078125 13.175781 22.949219 12.863281 23.042969 M 15.890625 23.050781 C 15.816406 23.148438 15.808594 23.230469 15.867188 23.316406 C 15.972656 23.46875 16.160156 23.398438 16.160156 23.199219 C 16.160156 23.027344 15.984375 22.929688 15.890625 23.050781 M 31.109375 23.066406 C 31.007812 23.117188 31 23.140625 31 23.359375 C 31 23.492188 30.984375 23.601562 30.964844 23.601562 C 30.9375 23.601562 30.839844 23.769531 30.839844 23.820312 C 30.839844 23.832031 30.875 23.839844 30.914062 23.839844 C 30.984375 23.839844 30.992188 23.878906 31.003906 24.332031 C 31.027344 25.0625 31.3125 25.359375 31.773438 25.140625 C 32.003906 25.03125 32.238281 24.492188 32.015625 24.574219 C 31.980469 24.589844 31.945312 24.601562 31.9375 24.601562 C 31.929688 24.601562 31.886719 24.667969 31.84375 24.753906 C 31.726562 24.980469 31.539062 25.027344 31.34375 24.878906 C 31.242188 24.796875 31.238281 24.785156 31.238281 24.316406 L 31.238281 23.839844 L 31.554688 23.839844 C 31.871094 23.839844 31.871094 23.839844 31.914062 23.71875 L 31.957031 23.601562 L 31.242188 23.601562 L 31.21875 23.007812 L 31.109375 23.066406 M 22.578125 23.160156 L 22.519531 23.28125 L 23.039062 23.28125 L 23.039062 24.921875 L 22.839844 24.921875 C 22.660156 24.921875 22.636719 24.929688 22.578125 25.039062 L 22.519531 25.160156 L 23.667969 25.160156 L 23.714844 25.058594 C 23.738281 25.003906 23.761719 24.949219 23.761719 24.9375 C 23.761719 24.929688 23.644531 24.921875 23.507812 24.921875 L 23.253906 24.921875 L 23.253906 23.28125 L 23.460938 23.28125 C 23.65625 23.28125 23.761719 23.203125 23.761719 23.058594 C 23.761719 23.046875 23.507812 23.039062 23.199219 23.039062 L 22.640625 23.039062 L 22.578125 23.160156 M 7.578125 23.457031 C 7.171875 23.632812 7.089844 24.144531 7.421875 24.4375 C 7.980469 24.925781 8.746094 24.101562 8.210938 23.589844 C 8.015625 23.402344 7.800781 23.359375 7.578125 23.457031 M 39.976562 23.457031 C 39.574219 23.632812 39.492188 24.144531 39.820312 24.433594 C 40.382812 24.925781 41.144531 24.101562 40.605469 23.585938 C 40.425781 23.414062 40.191406 23.363281 39.976562 23.457031 M 14.535156 23.65625 C 14.355469 23.734375 14.074219 24.238281 14.214844 24.238281 C 14.304688 24.238281 14.441406 24.148438 14.441406 24.089844 C 14.441406 23.863281 14.804688 23.761719 14.980469 23.9375 C 15.136719 24.09375 15.105469 24.136719 14.742188 24.277344 C 14.226562 24.476562 14.074219 24.722656 14.296875 24.988281 C 14.453125 25.175781 14.921875 25.273438 14.921875 25.121094 C 14.921875 25.007812 14.859375 24.960938 14.71875 24.960938 C 14.351562 24.960938 14.351562 24.714844 14.71875 24.53125 C 15.089844 24.347656 15.078125 24.339844 15.078125 24.78125 C 15.078125 25.15625 15.089844 25.183594 15.214844 25.136719 C 15.320312 25.097656 15.308594 24.027344 15.203125 23.855469 C 15.070312 23.636719 14.78125 23.550781 14.535156 23.65625 M 15.984375 23.667969 L 15.871094 23.726562 L 15.886719 24.273438 C 15.902344 24.863281 15.933594 24.96875 16.136719 25.101562 C 16.476562 25.324219 16.960938 25.085938 16.960938 24.695312 C 16.960938 24.519531 16.824219 24.554688 16.71875 24.761719 C 16.605469 24.980469 16.414062 25.027344 16.226562 24.878906 C 16.125 24.796875 16.121094 24.789062 16.109375 24.203125 L 16.101562 23.605469 L 15.984375 23.667969 M 17.5 23.648438 C 17.457031 23.671875 17.414062 23.695312 17.410156 23.699219 C 17.402344 23.703125 17.515625 24 17.660156 24.359375 C 17.808594 24.714844 17.941406 25.050781 17.960938 25.101562 C 18.054688 25.351562 18.222656 25.152344 18.523438 24.425781 C 18.835938 23.671875 18.828125 23.695312 18.71875 23.660156 C 18.609375 23.625 18.613281 23.617188 18.152344 24.800781 C 18.117188 24.890625 18.085938 24.832031 17.859375 24.265625 C 17.5625 23.53125 17.601562 23.59375 17.5 23.648438 M 19.5625 23.671875 C 19.277344 23.816406 19.148438 24.320312 19.277344 24.785156 C 19.390625 25.207031 19.871094 25.320312 20.179688 25 C 20.292969 24.882812 20.371094 24.558594 20.285156 24.558594 C 20.222656 24.558594 20.078125 24.710938 20.078125 24.777344 C 20.078125 24.949219 19.757812 25.011719 19.582031 24.875 C 19.390625 24.726562 19.453125 24.644531 19.910156 24.445312 C 20.320312 24.265625 20.320312 24.265625 20.320312 24.121094 C 20.320312 23.738281 19.910156 23.492188 19.5625 23.671875 M 24.601562 23.671875 C 24.332031 23.808594 24.300781 23.894531 24.285156 24.5625 C 24.273438 25.1875 24.277344 25.207031 24.441406 25.117188 C 24.511719 25.082031 24.519531 25.03125 24.519531 24.542969 C 24.519531 23.949219 24.570312 23.839844 24.839844 23.839844 C 25.101562 23.839844 25.140625 23.929688 25.152344 24.578125 C 25.160156 24.898438 25.179688 25.160156 25.199219 25.160156 C 25.351562 25.160156 25.359375 25.121094 25.359375 24.546875 C 25.359375 23.722656 25.097656 23.417969 24.601562 23.671875 M 25.898438 23.648438 C 25.855469 23.671875 25.816406 23.695312 25.808594 23.699219 C 25.804688 23.703125 25.917969 24 26.0625 24.359375 C 26.207031 24.714844 26.339844 25.050781 26.359375 25.101562 C 26.457031 25.351562 26.625 25.152344 26.925781 24.425781 C 27.234375 23.671875 27.230469 23.695312 27.117188 23.660156 C 27.011719 23.625 27.015625 23.617188 26.550781 24.800781 C 26.515625 24.890625 26.484375 24.832031 26.257812 24.265625 C 25.960938 23.53125 26 23.59375 25.898438 23.648438 M 27.960938 23.671875 C 27.679688 23.816406 27.550781 24.320312 27.675781 24.785156 C 27.789062 25.207031 28.273438 25.320312 28.578125 25 C 28.691406 24.882812 28.769531 24.558594 28.683594 24.558594 C 28.621094 24.558594 28.480469 24.710938 28.480469 24.777344 C 28.480469 24.949219 28.15625 25.011719 27.984375 24.875 C 27.792969 24.726562 27.851562 24.644531 28.308594 24.445312 C 28.71875 24.265625 28.71875 24.265625 28.71875 24.121094 C 28.71875 23.738281 28.308594 23.492188 27.960938 23.671875 M 29.703125 23.660156 C 29.363281 23.839844 29.445312 24.398438 29.816406 24.398438 C 30.0625 24.398438 30.234375 24.585938 30.160156 24.777344 C 30.050781 25.066406 29.558594 24.972656 29.558594 24.664062 C 29.558594 24.535156 29.386719 24.578125 29.367188 24.714844 C 29.320312 25.023438 29.765625 25.28125 30.101562 25.140625 C 30.59375 24.9375 30.402344 24.207031 29.855469 24.199219 C 29.683594 24.199219 29.617188 23.960938 29.765625 23.867188 C 29.851562 23.8125 30.03125 23.863281 30.058594 23.957031 C 30.082031 24.03125 30.214844 24.03125 30.261719 23.957031 C 30.378906 23.765625 29.945312 23.535156 29.703125 23.660156 M 33.003906 23.671875 C 32.597656 23.878906 32.550781 24.847656 32.9375 25.101562 C 33.390625 25.398438 33.757812 25.085938 33.757812 24.398438 C 33.757812 23.730469 33.457031 23.4375 33.003906 23.671875 M 34.683594 23.671875 C 34.414062 23.808594 34.382812 23.894531 34.367188 24.5625 C 34.351562 25.1875 34.359375 25.207031 34.523438 25.117188 C 34.59375 25.082031 34.601562 25.03125 34.601562 24.542969 C 34.601562 24.011719 34.601562 24.003906 34.707031 23.921875 C 34.910156 23.761719 35.175781 23.851562 35.222656 24.097656 C 35.25 24.253906 35.441406 24.226562 35.441406 24.066406 C 35.441406 23.742188 35 23.507812 34.683594 23.671875 M 20.023438 23.9375 C 20.164062 24.078125 20.152344 24.09375 19.808594 24.25 L 19.5 24.386719 L 19.488281 24.210938 C 19.464844 23.875 19.792969 23.710938 20.023438 23.9375 M 28.421875 23.9375 C 28.5625 24.078125 28.554688 24.09375 28.210938 24.25 L 27.898438 24.386719 L 27.886719 24.210938 C 27.863281 23.875 28.191406 23.710938 28.421875 23.9375 M 33.445312 23.917969 C 33.707031 24.128906 33.542969 24.960938 33.242188 24.960938 C 32.992188 24.960938 32.921875 24.835938 32.921875 24.410156 C 32.921875 23.878906 33.140625 23.671875 33.445312 23.917969 M 21.609375 28.601562 C 20.96875 28.988281 21.542969 30.03125 22.203125 29.679688 C 22.285156 29.636719 22.324219 29.664062 22.746094 30.085938 L 23.203125 30.542969 L 23.09375 30.742188 C 22.957031 30.984375 22.941406 31.371094 23.058594 31.613281 C 23.097656 31.695312 23.125 31.769531 23.117188 31.777344 C 23.105469 31.785156 22.933594 31.925781 22.726562 32.09375 L 22.355469 32.394531 L 22.1875 32.316406 C 21.472656 31.992188 20.941406 33.03125 21.640625 33.390625 C 22.105469 33.628906 22.542969 33.328125 22.507812 32.792969 L 22.492188 32.523438 L 22.871094 32.222656 L 23.25 31.917969 L 23.375 32.011719 C 23.625 32.199219 24 32.269531 24.28125 32.191406 C 24.378906 32.164062 24.394531 32.183594 24.535156 32.464844 L 24.683594 32.769531 L 24.574219 32.886719 C 24.425781 33.042969 24.394531 33.398438 24.515625 33.589844 C 24.84375 34.113281 25.640625 33.890625 25.640625 33.277344 C 25.640625 32.9375 25.367188 32.671875 25.019531 32.671875 L 24.835938 32.671875 L 24.546875 32.085938 L 24.667969 31.984375 C 24.734375 31.929688 24.832031 31.800781 24.882812 31.699219 L 24.980469 31.515625 L 25.171875 31.539062 C 25.441406 31.574219 25.480469 31.59375 25.480469 31.714844 C 25.480469 32.097656 25.984375 32.347656 26.359375 32.148438 C 27.011719 31.804688 26.585938 30.824219 25.878906 31.035156 C 25.742188 31.078125 25.550781 31.246094 25.511719 31.359375 C 25.503906 31.386719 25.429688 31.386719 25.273438 31.355469 L 25.046875 31.308594 L 25.023438 31.101562 C 24.988281 30.824219 24.875 30.617188 24.65625 30.421875 L 24.480469 30.261719 L 24.585938 29.996094 C 24.6875 29.730469 24.691406 29.730469 24.847656 29.726562 C 25.433594 29.71875 25.652344 28.9375 25.164062 28.609375 C 24.578125 28.21875 23.90625 29.023438 24.394531 29.539062 L 24.511719 29.660156 L 24.40625 29.925781 L 24.304688 30.191406 L 24.023438 30.1875 C 23.78125 30.183594 23.707031 30.199219 23.542969 30.292969 L 23.34375 30.402344 L 22.890625 29.949219 C 22.457031 29.515625 22.4375 29.492188 22.476562 29.386719 C 22.640625 28.957031 22.359375 28.519531 21.921875 28.519531 C 21.8125 28.519531 21.6875 28.550781 21.609375 28.601562 "/>
<path style=" stroke:none;fill-rule:evenodd;fill:rgb(39.215686%,61.176471%,54.901961%);fill-opacity:1;" d="M 12.65625 24.339844 C 12.65625 24.757812 12.664062 24.921875 12.667969 24.707031 C 12.675781 24.492188 12.675781 24.148438 12.667969 23.949219 C 12.664062 23.746094 12.65625 23.921875 12.65625 24.339844 M 25.128906 24.261719 C 25.128906 24.347656 25.140625 24.378906 25.148438 24.328125 C 25.15625 24.28125 25.15625 24.207031 25.148438 24.167969 C 25.136719 24.132812 25.128906 24.171875 25.128906 24.261719 M 33.53125 24.261719 C 33.53125 24.347656 33.539062 24.378906 33.546875 24.328125 C 33.558594 24.28125 33.558594 24.207031 33.546875 24.167969 C 33.539062 24.132812 33.53125 24.171875 33.53125 24.261719 M 15.03125 24.558594 C 15.042969 24.648438 15.054688 24.71875 15.0625 24.71875 C 15.074219 24.71875 15.078125 24.648438 15.078125 24.558594 C 15.078125 24.472656 15.066406 24.398438 15.050781 24.398438 C 15.03125 24.398438 15.023438 24.472656 15.03125 24.558594 M 25.128906 24.578125 C 25.128906 24.667969 25.140625 24.699219 25.148438 24.648438 C 25.15625 24.601562 25.15625 24.527344 25.148438 24.488281 C 25.136719 24.453125 25.128906 24.492188 25.128906 24.578125 M 15.050781 24.980469 C 15.050781 25.113281 15.058594 25.160156 15.070312 25.089844 C 15.078125 25.015625 15.078125 24.910156 15.070312 24.847656 C 15.058594 24.789062 15.050781 24.847656 15.050781 24.980469 M 25.128906 24.898438 C 25.128906 24.988281 25.140625 25.019531 25.148438 24.96875 C 25.15625 24.917969 25.15625 24.847656 25.148438 24.808594 C 25.136719 24.769531 25.128906 24.8125 25.128906 24.898438 M 23.039062 30.09375 C 23.039062 30.097656 23.097656 30.15625 23.171875 30.222656 L 23.300781 30.339844 L 23.183594 30.210938 C 23.074219 30.089844 23.039062 30.0625 23.039062 30.09375 "/>
<path style=" stroke:none;fill-rule:evenodd;fill:rgb(61.176471%,73.72549%,48.627451%);fill-opacity:1;" d="M 12.40625 24.371094 C 12.402344 24.828125 12.414062 25.199219 12.429688 25.199219 C 12.445312 25.199219 12.457031 24.953125 12.449219 24.648438 C 12.429688 23.632812 12.414062 23.535156 12.40625 24.371094 "/>
</g>
</svg>
